<svg t="1601868985287" class="icon" viewBox="0 0 1024 1024" version="1.1" xmlns="http://www.w3.org/2000/svg" p-id="10690" width="128" height="128"><path d="M813.09 238.24H200.855s-35.86 11.324-35.86 79.27 35.86 81.157 35.86 81.157H813.09s-30.833-13.212-30.833-80.214 30.833-80.213 30.833-80.213z" fill="#FCE3C3" p-id="10691"></path><path d="M836.11 411.167H198.626l-2.092-0.771c-1.798-0.662-44.039-17.096-44.039-92.887 0-76.229 42.775-90.614 44.597-91.189l1.837-0.58H836.11v25H203.434c-5.723 2.987-25.938 17.064-25.938 66.77 0 49.62 20.176 65.117 26.251 68.657H836.11v25z" fill="#300604" p-id="10692"></path><path d="M256.75 275.988h231.233v18.873H256.75zM390.334 310.933h344.649v23.043H390.334zM262.52 349.398h150.736v23.043H262.52z" fill="#ED8F27" p-id="10693"></path><path d="M907.017 433.246H294.782s-35.86 11.324-35.86 79.27 35.86 81.157 35.86 81.157h612.235s-30.833-13.212-30.833-80.214 30.833-80.213 30.833-80.213z" fill="#FCE3C3" p-id="10694"></path><path d="M930.037 606.173H292.553l-2.092-0.771c-1.798-0.662-44.039-17.096-44.039-92.887 0-76.229 42.775-90.614 44.597-91.189l1.837-0.58h637.182v25H297.36c-5.723 2.987-25.938 17.064-25.938 66.77 0 49.62 20.176 65.117 26.251 68.657h632.364v25z" fill="#300604" p-id="10695"></path><path d="M354.857 541.566h431.325v23.043H354.857z" fill="#ED8F27" p-id="10696"></path><path d="M792.055 627.604H179.82s-35.86 11.324-35.86 79.27 35.86 81.157 35.86 81.157h612.235s-30.833-13.212-30.833-80.214 30.833-80.213 30.833-80.213z" fill="#FCE3C3" p-id="10697"></path><path d="M815.075 800.531H177.59l-2.092-0.771c-1.799-0.663-44.038-17.097-44.038-92.887 0-76.229 42.774-90.614 44.595-91.189l1.838-0.58h637.183v25H182.397c-5.723 2.987-25.938 17.064-25.938 66.77 0 49.619 20.175 65.117 26.25 68.657h632.365v25z" fill="#300604" p-id="10698"></path><path d="M265.709 708.718l-50.263 147.29 153.236-57.634z" fill="#FCE3C3" p-id="10699"></path><path d="M314.22 744.184l54.462 54.19L697.02 470.635l-51.623-47.93z" fill="#B12800" p-id="10700"></path><path d="M268.266 699.017l54.461 54.19 328.339-327.739-51.623-47.93z" fill="#ED8F27" p-id="10701"></path><path d="M645.397 329.934l58.74-57.215 41.085-3.024 52.717 53.485 3.061 42-66.183 67.658z" fill="#228E9D" p-id="10702"></path><path d="M362.732 805.746l-97.023-97.028a8.645 8.645 0 0 1 0-12.226l422.24-422.237c11.268-11.271 26.55-17.075 42.624-16.073 13.979 0.871 26.973 7.542 36.878 17.445l29.748 29.746c21.576 21.574 21.578 56.555 0.002 78.131L374.957 805.746a8.644 8.644 0 0 1-12.225 0z m-77.039-103.141l83.152 83.158 415.308-415.308c14.343-14.341 14.34-37.686-0.003-52.032l-31.123-31.12c-6.948-6.951-16.187-10.778-26.013-10.778s-19.065 3.827-26.016 10.778L285.693 702.605z" fill="#300604" p-id="10703"></path><path d="M697.02 470.642l-96.201-96.201 40.744-40.745 96.201 96.201z" fill="#300604" p-id="10704"></path><path d="M697.02 483.681L587.766 374.432l53.798-53.793 109.249 109.249-53.793 53.793z m-83.151-109.249l83.152 83.152 27.695-27.695-83.152-83.152-27.695 27.695z" fill="#300604" p-id="10705"></path><path d="M745.703 381.239l-13.049-13.049 18.11-18.107c3.265-3.268 3.265-8.585-0.003-11.853l-8.768-8.771 13.049-13.049 8.771 8.771c10.459 10.465 10.459 27.485 0.003 37.951l-18.113 18.107zM638.998 419.4l13.05 13.048L327.27 757.224l-13.049-13.049z" fill="#300604" p-id="10706"></path><path d="M199.742 871.713L264 699.379l17.289 6.452-50.139 134.475 134.471-50.14 6.447 17.29z" fill="#300604" p-id="10707"></path><path d="M215.446 856.008l57.278-25.908-31.37-31.371z" fill="#300604" p-id="10708"></path><path d="M196.954 874.501l41.489-91.736 50.242 50.241-91.731 41.495z m47.311-59.812l-10.328 22.829 22.829-10.327-12.501-12.502z" fill="#300604" p-id="10709"></path></svg>