<svg t="1601881960400" class="icon" viewBox="0 0 1024 1024" version="1.1" xmlns="http://www.w3.org/2000/svg" p-id="36949" width="48" height="48"><path d="M711.125333 85.333333H312.874667C167.68 85.333333 85.333333 167.637333 85.333333 312.874667v398.250666C85.333333 855.978667 167.253333 938.666667 312.874667 938.666667h398.250666C856.32 938.666667 938.666667 855.978667 938.666667 711.125333V312.874667C938.666667 167.68 856.362667 85.333333 711.125333 85.333333z" fill="#1296db" opacity=".4" p-id="36950"></path><path d="M653.653333 542.208h-109.653333v108.757333c0 17.493333-14.336 31.701333-32 31.701334a31.829333 31.829333 0 0 1-32-31.701334v-108.757333H370.346667a32.128 32.128 0 0 1-29.013334-31.872c0-16.426667 12.501333-30.165333 29.013334-31.872h109.312v-108.373333A32.213333 32.213333 0 0 1 511.829333 341.333333c16.554667 0 30.464 12.373333 32.170667 28.757334v108.373333h109.653333c16.512 1.706667 29.013333 15.445333 29.013334 31.872a32.128 32.128 0 0 1-29.013334 31.872z" fill="#1296db" p-id="36951"></path></svg>