<?xml version="1.0" encoding="UTF-8"?>
<svg width="18px" height="19px" viewBox="0 0 18 19" version="1.1" >

    <defs>
        <filter id="filter-1">
            <feColorMatrix in="SourceGraphic" type="matrix" values="0 0 0 0 0.784314 0 0 0 0 0.294118 0 0 0 0 0.294118 0 0 0 1.000000 0"></feColorMatrix>
        </filter>
    </defs>
    <g id="资源管理器" stroke="none" stroke-width="1" fill="none" fill-rule="evenodd">
        <g id="Artboard" transform="translate(-90.000000, -51.000000)">
            <g id="book-6" transform="translate(71.000000, 36.000000)" filter="url(#filter-1)">
                <g transform="translate(19.000000, 15.000000)">
                    <path d="M17.7963946,0.919918616 C17.670325,0.843678563 17.5127962,0.836707614 17.3801824,0.901500439 L9.00021443,4.9936874 L0.620675056,0.901500439 C0.487733319,0.836444826 0.329763574,0.843321206 0.203276159,0.919669699 C0.0767887441,0.996018192 0,1.13092996 0,1.27614316 L0,14.2525953 C0,14.4112538 0.0917076256,14.5563177 0.237039698,14.6272381 L8.80818241,18.8131904 C8.8120402,18.8148647 8.81632662,18.8144461 8.82018443,18.8161205 C8.87505072,18.8412362 8.93506071,18.8571429 8.99978577,18.8571429 C9.06451084,18.8571429 9.12452085,18.8408176 9.17938714,18.8161205 C9.18324493,18.8144461 9.18753135,18.8152833 9.19138913,18.8131904 L17.7629605,14.6272381 C17.9082704,14.5560769 18,14.4112429 18,14.2525953 L18,1.27614316 C18,1.13095466 17.922931,0.996142582 17.7963946,0.919918616 Z M0.857285917,1.95343024 L8.57114291,5.72078732 L8.57114291,17.7612605 L0.857285917,13.9939035 L0.857285917,1.95343024 Z M17.1427143,13.9939035 L9.42842865,17.7612605 L9.42842865,5.72078732 L17.1427143,1.95343024 L17.1427143,13.9939035 Z" id="Shape" fill="#010101" fill-rule="nonzero"></path>
                    <path d="M1.93800173,0.806463412 L8.79655136,4.23977726 C8.91814917,4.30102663 9.06203294,4.30102663 9.18363075,4.23977726 L16.0421804,0.806463412 C16.1823344,0.740078551 16.2751939,0.603862828 16.2848782,0.45044929 C16.2945626,0.297035751 16.2195553,0.150451254 16.0888386,0.0673352836 C15.958122,-0.015780687 15.7921682,-0.0224109256 15.655101,0.0500064574 L8.98987672,3.38621906 L2.32465245,0.0500064574 C2.11483495,-0.0470800921 1.86499906,0.0382788706 1.76048119,0.242761286 C1.65596331,0.447243701 1.73457597,0.696871838 1.93800173,0.806463412 Z" id="Path" fill="#010101" fill-rule="nonzero"></path>
                </g>
            </g>
        </g>
    </g>
</svg>