<svg t="1601868185524" class="icon" viewBox="0 0 1024 1024" version="1.1" xmlns="http://www.w3.org/2000/svg" p-id="8653" width="48" height="48"><path d="M145.380453 606.134993c-11.472635 0-20.73163-9.258995-20.73163-20.73163 0-11.472635 9.258995-20.73163 20.73163-20.73163 11.472635 0 20.73163 9.258995 20.73163 20.73163 0 11.472635-9.258995 20.73163-20.73163 20.73163z m0-27.373574c-3.622506 0-6.641944 3.019438-6.641944 6.641944s3.019438 6.641944 6.641944 6.641944c3.622506 0 6.641944-3.019438 6.641944-6.641944s-3.019438-6.641944-6.641944-6.641944z" fill="#F16723" p-id="8654"></path><path d="M890.711632 480.134641m-4.226598 0a4.226599 4.226599 0 1 0 8.453197 0 4.226599 4.226599 0 1 0-8.453197 0Z" fill="" p-id="8655"></path><path d="M347.664358 69.527957m-4.226599 0a4.226599 4.226599 0 1 0 8.453197 0 4.226599 4.226599 0 1 0-8.453197 0Z" fill="" p-id="8656"></path><path d="M917.482138 741.191611m-4.226599 0a4.226599 4.226599 0 1 0 8.453198 0 4.226599 4.226599 0 1 0-8.453198 0Z" fill="" p-id="8657"></path><path d="M900.57472 154.26573c-13.283888 0-23.951749-10.667861-23.95175-23.951749s10.667861-23.951749 23.95175-23.95175 23.951749 10.667861 23.951749 23.95175-10.667861 23.951749-23.951749 23.951749z m0-33.813813c-5.434783 0-9.863087 4.428304-9.863088 9.863088s4.428304 9.863087 9.863088 9.863087c5.434783 0 9.863087-4.428304 9.863087-9.863087s-4.429328-9.863087-9.863087-9.863088z" fill="#FBD20A" p-id="8658"></path><path d="M131.89486 760.111987h-7.044331v-7.044331c0-3.824212-3.220119-7.044331-7.044331-7.044331s-7.044331 3.220119-7.044331 7.044331v7.044331h-7.044331c-3.824212 0-7.044331 3.220119-7.044331 7.044331s3.220119 7.044331 7.044331 7.044332h7.044331v7.044331c0 3.824212 3.220119 7.044331 7.044331 7.044331s7.044331-3.220119 7.044331-7.044331v-7.044331h7.044331c3.824212 0 7.044331-3.220119 7.044331-7.044332s-3.220119-7.044331-7.044331-7.044331z" fill="#F16723" p-id="8659"></path><path d="M117.805174 97.90801m-6.239557 0a6.239557 6.239557 0 1 0 12.479114 0 6.239557 6.239557 0 1 0-12.479114 0Z" fill="" p-id="8660"></path><path d="M613.753724 97.90801m-6.239558 0a6.239557 6.239557 0 1 0 12.479115 0 6.239557 6.239557 0 1 0-12.479115 0Z" fill="" p-id="8661"></path><path d="M85.600909 657.259635m-6.239557 0a6.239557 6.239557 0 1 0 12.479114 0 6.239557 6.239557 0 1 0-12.479114 0Z" fill="" p-id="8662"></path><path d="M897.152895 331.591406m-6.239557 0a6.239557 6.239557 0 1 0 12.479114 0 6.239557 6.239557 0 1 0-12.479114 0Z" fill="" p-id="8663"></path><path d="M931.5708 622.639h-7.044331v-7.044331c0-3.824212-3.220119-7.044331-7.044331-7.044331s-7.044331 3.220119-7.044331 7.044331v7.044331h-7.044331c-3.824212 0-7.044331 3.220119-7.044331 7.044331s3.220119 7.044331 7.044331 7.044332h7.044331v7.044331c0 3.824212 3.220119 7.044331 7.044331 7.044331s7.044331-3.220119 7.044331-7.044331v-7.044331h7.044331c3.824212 0 7.044331-3.220119 7.044331-7.044332s-3.220119-7.044331-7.044331-7.044331z" fill="#4E9BD4" p-id="8664"></path><path d="M142.562721 360.37487h-7.044331v-7.044331c0-3.824212-3.220119-7.044331-7.044331-7.044331s-7.044331 3.220119-7.044331 7.044331v7.044331h-7.044331c-3.824212 0-7.044331 3.220119-7.044331 7.044331s3.220119 7.044331 7.044331 7.044331h7.044331v7.044331c0 3.824212 3.220119 7.044331 7.044331 7.044331s7.044331-3.220119 7.044331-7.044331v-7.044331h7.044331c3.824212 0 7.044331-3.220119 7.044331-7.044331s-3.220119-7.044331-7.044331-7.044331z" fill="#FBD20A" p-id="8665"></path><path d="M257.491801 944.281312h-10.667861c-28.78244 0-52.131121-23.348681-52.131122-52.131121V190.697618c0-28.78244 23.348681-52.131121 52.131122-52.131121h10.667861V944.281312z" fill="#FFFFFF" p-id="8666"></path><path d="M355.715168 136.755243h53.1376v805.714816h-53.1376z" fill="#FAAF1A" p-id="8667"></path><path d="M358.5329 944.281312h-77.491737c-26.971187 0-48.911002-21.938791-48.911002-48.909978V187.476475c0-26.971187 21.938791-48.911002 48.911002-48.911002h77.491737v805.715839z" fill="#FBD20A" p-id="8668"></path><path d="M405.833331 138.566497h40.658486V944.281312h-40.658486z" fill="#FFFFFF" p-id="8669"></path><path d="M565.044427 136.755243h61.590798v805.714816H565.044427z" fill="#3769A5" p-id="8670"></path><path d="M446.290112 138.566497h127.005807V944.281312H446.290112z" fill="#4E9BD4" p-id="8671"></path><path d="M619.993281 138.566497h40.658486V944.281312h-40.658486z" fill="#FFFFFF" p-id="8672"></path><path d="M775.983234 942.470059h-15.498552V136.755243h15.498552c34.015518 0 61.590798 27.57528 61.590798 61.590798v682.533221c0 34.015518-27.574256 61.590798-61.590798 61.590797z" fill="#D0481F" p-id="8673"></path><path d="M735.92884 944.281312h-75.278097V138.566497h75.278097c28.78244 0 52.331803 23.348681 52.331803 52.331802v701.251892c-0.200682 28.581759-23.549362 52.131121-52.331803 52.131121z" fill="#F16723" p-id="8674"></path><path d="M257.491801 238.400435c-3.824212 0-7.044331-3.220119-7.044331-7.044331 0-31.197786 25.360616-56.559425 56.559425-56.559425 3.824212 0 7.044331 3.220119 7.044331 7.044331s-3.220119 7.044331-7.044331 7.044331c-23.348681 0-42.469739 19.121058-42.469739 42.469739-0.001024 3.824212-3.221143 7.045355-7.045355 7.045355zM257.491801 275.435391c-3.824212 0-7.044331-3.220119-7.044331-7.044331v-11.070248c0-3.824212 3.220119-7.044331 7.044331-7.044331s7.044331 3.220119 7.044331 7.044331v11.070248c0 3.824212-3.220119 7.044331-7.044331 7.044331zM257.491801 807.210712c-3.824212 0-7.044331-3.220119-7.044331-7.044331v-66.019101c0-3.824212 3.220119-7.044331 7.044331-7.044332s7.044331 3.220119 7.044331 7.044332v66.019101c0 3.824212-3.220119 7.044331-7.044331 7.044331zM474.267778 238.400435c-3.824212 0-7.044331-3.220119-7.044331-7.044331 0-31.197786 25.360616-56.559425 56.559425-56.559425 3.824212 0 7.044331 3.220119 7.044331 7.044331s-3.220119 7.044331-7.044331 7.044331c-23.348681 0-42.469739 19.121058-42.469739 42.469739 0 3.824212-3.221143 7.045355-7.045355 7.045355zM474.267778 275.435391c-3.824212 0-7.044331-3.220119-7.044331-7.044331v-11.070248c0-3.824212 3.220119-7.044331 7.044331-7.044331s7.044331 3.220119 7.044331 7.044331v11.070248c0.001024 3.824212-3.220119 7.044331-7.044331 7.044331zM474.267778 807.210712c-3.824212 0-7.044331-3.220119-7.044331-7.044331v-66.019101c0-3.824212 3.220119-7.044331 7.044331-7.044332s7.044331 3.220119 7.044331 7.044332v66.019101c0.001024 3.824212-3.220119 7.044331-7.044331 7.044331zM686.817156 238.400435c-3.824212 0-7.044331-3.220119-7.044331-7.044331 0-31.197786 25.360616-56.559425 56.559426-56.559425 3.824212 0 7.044331 3.220119 7.044331 7.044331s-3.220119 7.044331-7.044331 7.044331c-23.348681 0-42.469739 19.121058-42.46974 42.469739 0 3.824212-3.221143 7.045355-7.045355 7.045355zM686.817156 275.435391c-3.824212 0-7.044331-3.220119-7.044331-7.044331v-11.070248c0-3.824212 3.220119-7.044331 7.044331-7.044331s7.044331 3.220119 7.044332 7.044331v11.070248c0.001024 3.824212-3.220119 7.044331-7.044332 7.044331zM686.817156 807.210712c-3.824212 0-7.044331-3.220119-7.044331-7.044331v-66.019101c0-3.824212 3.220119-7.044331 7.044331-7.044332s7.044331 3.220119 7.044332 7.044332v66.019101c0.001024 3.824212-3.220119 7.044331-7.044332 7.044331z" fill="#FFFFFF" p-id="8675"></path><path d="M402.210824 582.988017H201.536468c-3.824212 0-6.84365-3.019438-6.84365-6.843649v-183.766938c0-3.824212 3.019438-6.84365 6.84365-6.84365h200.674356c3.824212 0 6.84365 3.019438 6.84365 6.84365v183.766938c0 3.622506-3.221143 6.84365-6.84365 6.843649z" fill="#FFE4B8" p-id="8676"></path><path d="M616.369751 582.988017H415.8971c-3.824212 0-6.84365-3.019438-6.84365-6.843649v-183.766938c0-3.824212 3.019438-6.84365 6.84365-6.84365h200.674356c3.824212 0 6.84365 3.019438 6.84365 6.84365v183.766938c-0.201705 3.622506-3.221143 6.84365-7.045355 6.843649z" fill="#FFE4B8" p-id="8677"></path><path d="M623.2134 388.150831h214.360632V585.604044h-214.360632z" fill="#FFE4B8" p-id="8678"></path><path d="M194.692818 388.150831h37.437343v190.609564h-37.437343zM412.274593 388.150831h34.015519v190.609564h-34.015519zM626.635225 388.150831h34.015518v190.609564h-34.015518z" fill="#FFFFFF" p-id="8679"></path><path d="M788.059961 388.150831h40.054394v190.609564h-40.054394zM573.296943 388.955605h40.255075v190.609564H573.296943zM358.5329 388.955605h40.054394v190.609564h-40.054394z" fill="#E7D0A9" p-id="8680"></path><path d="M363.767002 462.020062H239.98029c-6.641944 0-12.076727-5.434783-12.076727-12.076728s5.434783-12.076727 12.076727-12.076727h123.785688c6.641944 0 12.076727 5.434783 12.076728 12.076727s-5.433759 12.076727-12.075704 12.076728zM363.767002 506.301054H239.98029c-6.641944 0-12.076727-5.434783-12.076727-12.076727s5.434783-12.076727 12.076727-12.076728h123.785688c6.641944 0 12.076727 5.434783 12.076728 12.076728s-5.433759 12.076727-12.075704 12.076727z" fill="" p-id="8681"></path><path d="M730.494057 859.141152m-29.990625 0a29.990625 29.990625 0 1 0 59.98125 0 29.990625 29.990625 0 1 0-59.98125 0Z" fill="#FFFFFF" p-id="8682"></path><path d="M785.44291 126.489769H623.2134c-6.641944 0-12.076727 5.434783-12.076727 12.076728v805.51311c0 6.641944 5.434783 12.076727 12.076727 12.076727h162.22951c35.425408 0 64.207849-28.78244 64.207849-64.207848V728.310109c0-6.641944-5.434783-12.076727-12.076727-12.076727s-12.076727 5.434783-12.076728 12.076727v163.638377c0 22.140496-17.913898 40.054394-40.054394 40.054394h-150.152782V597.882477h190.207176v101.0411c0 6.641944 5.434783 12.076727 12.076728 12.076727s12.076727-5.434783 12.076727-12.076727v-508.225959c0-35.425408-28.78244-64.207849-64.207849-64.207849z m40.054394 447.239253h-190.207176V400.429264h190.207176v173.299758z m0-197.453213h-190.207176V150.643224h150.152782c22.140496 0 40.054394 17.913898 40.054394 40.054394v185.578191z" fill="" p-id="8683"></path><path d="M668.500872 462.020062h123.785688c6.641944 0 12.076727-5.434783 12.076727-12.076728s-5.434783-12.076727-12.076727-12.076727H668.500872c-6.641944 0-12.076727 5.434783-12.076728 12.076727s5.434783 12.076727 12.076728 12.076728zM668.500872 506.301054h123.785688c6.641944 0 12.076727-5.434783 12.076727-12.076727s-5.434783-12.076727-12.076727-12.076728H668.500872c-6.641944 0-12.076727 5.434783-12.076728 12.076728s5.434783 12.076727 12.076728 12.076727zM688.427728 859.141152c0 23.146976 18.920377 42.067352 42.067353 42.067353s42.067352-18.920377 42.067352-42.067353-18.920377-42.067352-42.067352-42.067352-42.067352 18.920377-42.067353 42.067352z m59.980226 0c0 9.863087-8.05081 17.913898-17.913897 17.913898s-17.913898-8.05081-17.913898-17.913898 8.05081-17.913898 17.913898-17.913897 17.913898 8.05081 17.913897 17.913897z" fill="" p-id="8684"></path><path d="M301.772793 859.141152m-29.990625 0a29.990625 29.990625 0 1 0 59.98125 0 29.990625 29.990625 0 1 0-59.98125 0Z" fill="#FFFFFF" p-id="8685"></path><path d="M194.692818 746.224007c6.641944 0 12.076727-5.434783 12.076728-12.076727V698.722895c0-6.641944-5.434783-12.076727-12.076728-12.076727s-12.076727 5.434783-12.076727 12.076727v35.425408c0 6.64092 5.434783 12.075704 12.076727 12.075704z" fill="" p-id="8686"></path><path d="M409.054474 126.489769H246.82394c-35.424384 0-64.207849 28.78244-64.207849 64.207849v66.623194c0 6.641944 5.434783 12.076727 12.076727 12.076727s12.076727-5.434783 12.076728-12.076727v-66.623194c0-22.140496 17.913898-40.054394 40.054394-40.054394h150.152783v225.632585h-190.207177v-91.379717c0-6.641944-5.434783-12.076727-12.076728-12.076728s-12.076727 5.434783-12.076727 12.076728v384.843681c0 6.641944 5.434783 12.076727 12.076727 12.076728s12.076727-5.434783 12.076728-12.076728v-71.856272h190.207177v334.322108h-150.152783c-22.140496 0-40.054394-17.913898-40.054394-40.054394V765.345065c0-6.641944-5.434783-12.076727-12.076728-12.076727s-12.076727 5.434783-12.076727 12.076727v126.805126c0 35.424384 28.78244 64.207849 64.207849 64.207849h162.22951c6.641944 0 12.076727-5.434783 12.076727-12.076728V138.566497c0-6.641944-5.433759-12.076727-12.075703-12.076728z m-12.076728 447.239253h-190.207176V400.429264h190.207176v173.299758z" fill="" p-id="8687"></path><path d="M343.840146 859.141152c0-23.146976-18.920377-42.067352-42.067353-42.067352s-42.067352 18.920377-42.067352 42.067352 18.920377 42.067352 42.067352 42.067353 42.067352-18.920377 42.067353-42.067353z m-59.98125 0c0-9.863087 8.05081-17.913898 17.913897-17.913897s17.913898 8.05081 17.913898 17.913897-8.05081 17.913898-17.913898 17.913898c-9.862063 0-17.913898-8.051834-17.913897-17.913898z" fill="" p-id="8688"></path><path d="M516.133425 859.141152m-29.990625 0a29.990625 29.990625 0 1 0 59.98125 0 29.990625 29.990625 0 1 0-59.98125 0Z" fill="#FFFFFF" p-id="8689"></path><path d="M623.415106 126.489769h-214.360632c-6.641944 0-12.076727 5.434783-12.076728 12.076728V944.281312c0 6.641944 5.434783 12.076727 12.076728 12.076728h214.360632c6.641944 0 12.076727-5.434783 12.076727-12.076728V138.566497c0-6.641944-5.434783-12.076727-12.076727-12.076728z m-12.076728 805.714816h-190.207177V597.882477h190.207177v334.322108z m0-358.475563h-190.207177V400.429264h190.207177v173.299758z m0-197.453213h-190.207177V150.643224h190.207177v225.632585z" fill="" p-id="8690"></path><path d="M454.341946 462.020062h123.785688c6.641944 0 12.076727-5.434783 12.076727-12.076728s-5.434783-12.076727-12.076727-12.076727H454.341946c-6.641944 0-12.076727 5.434783-12.076728 12.076727s5.433759 12.076727 12.076728 12.076728zM454.341946 506.301054h123.785688c6.641944 0 12.076727-5.434783 12.076727-12.076727s-5.434783-12.076727-12.076727-12.076728H454.341946c-6.641944 0-12.076727 5.434783-12.076728 12.076728s5.433759 12.076727 12.076728 12.076727zM516.133425 901.207481c23.146976 0 42.067352-18.920377 42.067353-42.067353s-18.920377-42.067352-42.067353-42.067352-42.067352 18.920377-42.067352 42.067352c0.001024 23.147999 18.920377 42.067352 42.067352 42.067353z m0-59.980226c9.863087 0 17.913898 8.05081 17.913898 17.913897s-8.05081 17.913898-17.913898 17.913898-17.913898-8.05081-17.913898-17.913898 8.051834-17.913898 17.913898-17.913897z" fill="" p-id="8691"></path></svg>