<svg t="1596271014901" class="icon" viewBox="0 0 1024 1024" version="1.1" xmlns="http://www.w3.org/2000/svg" p-id="1683" width="200" height="200"><path d="M988.04864 110.378667L777.275307 8.96a63.744 63.744 0 0 0-72.746667 12.373333l-403.626667 368.213334-175.786666-133.461334a42.624 42.624 0 0 0-54.442667 2.432L14.267307 309.802667A42.666667 42.666667 0 0 0 14.22464 372.906667L166.67264 512 14.22464 651.093333a42.666667 42.666667 0 0 0 0.042667 63.104L70.715307 765.44a42.624 42.624 0 0 0 54.442666 2.432l175.786667-133.461333 403.626667 368.213333a63.658667 63.658667 0 0 0 72.704 12.373333l210.858666-101.418666A64 64 0 0 0 1024.315307 855.893333V168.064a64 64 0 0 0-36.266667-57.685333z m-219.562667 634.069333L462.22464 512l306.261333-232.448v464.896z" p-id="1684"></path></svg>